<svg width="154" height="28" viewBox="0 0 154 28" fill="none" xmlns="http://www.w3.org/2000/svg">
<path d="M5.20106 25.984V4.34573H2.13384C1.23616 4.34573 0.787383 3.89701 0.805975 3.01794V1.85835C0.805975 0.960615 1.25482 0.5119 2.13384 0.5119H12.4761C13.3737 0.5119 13.8226 0.960615 13.8226 1.85835V3.01794C13.8226 3.91568 13.3737 4.3644 12.4761 4.34573H9.40897V25.984C9.40897 26.8817 8.96013 27.3306 8.08109 27.3306H6.54752C5.64984 27.3306 5.20106 26.8817 5.20106 25.984Z" fill="white"/>
<path d="M20.4389 25.984V1.85835C20.4389 0.960615 20.8878 0.5119 21.7854 0.5119H23.319C24.2167 0.5119 24.6656 0.960615 24.6468 1.85835V11.4338H29.1728V1.85835C29.1728 0.960615 29.6217 0.5119 30.5192 0.5119H32.0529C32.9505 0.5119 33.3995 0.960615 33.3807 1.85835V25.984C33.3807 26.8817 32.9318 27.3306 32.0529 27.3306H30.5192C29.6217 27.3306 29.1728 26.8817 29.1728 25.984V15.2678H24.6468V25.984C24.6468 26.8817 24.198 27.3306 23.319 27.3306H21.7854C20.8878 27.3306 20.4389 26.8817 20.4389 25.984Z" fill="white"/>
<path d="M41.1191 25.984V1.85835C41.1191 0.960615 41.568 0.5119 42.4657 0.5119H51.2743C52.1722 0.5119 52.6209 0.960615 52.6023 1.85835V3.01794C52.6023 3.91568 52.1535 4.3644 51.2743 4.34573H45.3272V11.4338H49.7784C50.6759 11.4338 51.1248 11.8827 51.1061 12.7803V13.9213C51.1061 14.8189 50.6573 15.2678 49.7784 15.2678H45.3272V23.4967H51.2743C52.1722 23.4967 52.6209 23.9455 52.6023 24.8432V25.984C52.6023 26.8817 52.1535 27.3306 51.2743 27.3306H42.4657C41.568 27.3306 41.1191 26.8817 41.1191 25.984Z" fill="white"/>
<path d="M65.3529 12.0135C66.1945 12.0135 66.8302 11.7892 67.2417 11.3591C67.6533 10.9289 67.8589 10.1995 67.8589 9.17096V7.11378C67.8589 5.28096 67.1484 4.3644 65.7269 4.34573H63.8006V12.0135H65.3529ZM60.9392 27.3306C60.0416 27.3306 59.5926 26.8817 59.5926 25.984V1.85835C59.5926 0.960615 60.0416 0.5119 60.9392 0.5119H65.8391C68.0086 0.5119 69.5982 1.01678 70.5895 2.0267C71.5806 3.03662 72.0856 4.58891 72.0856 6.68358V8.32923C72.0856 11.116 71.1692 12.8739 69.3177 13.622V13.6968C71.188 14.2766 72.123 16.1655 72.123 19.3635V24.0766C72.123 24.9181 72.1605 25.5165 72.2353 25.8718C72.2913 26.115 72.3101 26.2832 72.3101 26.3767C72.3101 27.0128 71.9173 27.3306 71.1505 27.3306H69.4674C68.5697 27.3306 68.0833 26.9566 68.0273 26.1899C67.9524 25.7222 67.9151 25.0116 67.8964 24.039V19.1391C67.8964 17.9233 67.7094 17.0631 67.3166 16.5769C66.9239 16.0907 66.2506 15.8477 65.2781 15.8477H63.8193V25.984C63.8193 26.8817 63.3704 27.3306 62.4913 27.3306H60.9579H60.9392Z" fill="white"/>
<path d="M87.5482 18.4471L85.5845 5.1873H85.5097L83.602 18.4471H87.5482ZM79.8804 27.3306C79.0388 27.3306 78.6273 26.9566 78.6459 26.1899C78.6459 26.115 78.6648 26.0027 78.6834 25.8345L82.7044 1.74618C82.8353 0.923275 83.3028 0.5119 84.1257 0.5119H87.38C88.2027 0.5119 88.6703 0.923275 88.7824 1.74618L92.8034 25.8345C92.8221 25.984 92.8408 26.0962 92.8596 26.1899C92.8596 26.9566 92.4294 27.3306 91.5878 27.3306H90.0917C89.2126 27.3306 88.7264 26.9193 88.6329 26.0962L88.0719 22.0005V22.0754H83.1158L82.5548 26.0962C82.4612 26.9193 81.9749 27.3306 81.096 27.3306H79.899H79.8804Z" fill="white"/>
<path d="M100.595 0.399998V27H106.295C110.361 27 112.109 24.682 112.109 20.844V18.526C112.109 15.524 111.007 13.396 108.119 12.826C110.817 12.256 111.615 10.47 111.615 7.582V6.062C111.615 2.376 110.171 0.399998 106.181 0.399998H100.595ZM102.343 12.142V1.996H106.143C108.993 1.996 109.867 3.44 109.867 6.214V7.924C109.867 11.306 108.423 12.142 105.307 12.142H102.343ZM102.343 25.404V13.738H105.649C108.803 13.738 110.361 14.954 110.361 18.412V20.806C110.361 23.77 109.221 25.404 106.295 25.404H102.343ZM125.065 27V25.404H116.705V0.399998H114.957V27H125.065ZM127.571 20.502C127.571 24.378 129.357 27.228 133.385 27.228C137.489 27.228 139.275 24.378 139.275 20.502V6.898C139.275 3.022 137.489 0.171999 133.385 0.171999C129.357 0.171999 127.571 3.022 127.571 6.898V20.502ZM129.319 6.784C129.319 3.896 130.459 1.768 133.385 1.768C136.349 1.768 137.527 3.896 137.527 6.784V20.616C137.527 23.504 136.349 25.632 133.385 25.632C130.459 25.632 129.319 23.504 129.319 20.616V6.784ZM147.782 0.171999C143.716 0.171999 142.044 3.06 142.044 6.898V20.502C142.044 24.34 143.716 27.228 147.782 27.228C151.848 27.228 153.52 24.34 153.52 20.502V13.282H148.314V14.878H151.848V20.616C151.848 23.466 150.746 25.594 147.82 25.594C144.894 25.594 143.792 23.466 143.792 20.616V6.784C143.792 3.934 144.894 1.768 147.82 1.768C150.746 1.768 151.848 3.934 151.848 6.784V8.874H153.52V6.898C153.52 3.06 151.848 0.171999 147.782 0.171999Z" fill="white"/>
</svg>
